<?xml version="1.0" encoding="UTF-8" standalone="no"?>

<svg
  viewBox="0 0 270.93333 270.93334"
  version="1.1"
  xmlns="http://www.w3.org/2000/svg"
  class="ist-maintenance"
>
  <g>
    <g
      transform="matrix(0.94074074,0,0,0.94074074,70.642146,158.05964)"
      style="stroke-width:0.375"
    >
      <g transform="matrix(0.33046608,0,0,0.33046608,43.146873,26.652132)">
        <g
          transform="matrix(1.2434625,0,0,1.243461,-46.258351,-134.79531)"
          style="stroke-width:0.301578"
        >
          <path
            class="ist-maintenance_eye"
            d="m 31.455183,-136.2747 c -34.7903108,0 -62.9689,28.17857 -62.9689,62.968887 0,34.790325 28.1785892,62.968904 62.9689,62.968904 34.790312,0 62.9689,-28.178579 62.9689,-62.968904 0,-34.790317 -28.178588,-62.968887 -62.9689,-62.968887 z m 0,31.48445 c 17.316453,0 31.484454,14.167996 31.484454,31.484437 0,17.316453 -14.168001,31.484453 -31.484454,31.484453 -17.316453,0 -31.48445281,-14.168 -31.48445281,-31.484453 0,-17.316441 14.16799981,-31.484437 31.48445281,-31.484437 z"
            style="fill:#ffc107;stroke-width:0.301577"
          />
          <path
            d="M 102.90614,161.10644 H 59.479307 v 51.02651 h 62.968903 c 17.31645,0 31.48445,-14.168 31.48445,-31.48445 v -62.9689 h -51.02652 z"
            style="fill:#388e3c;stroke-width:0.301577"
          />
          <path
            d="m -113.47533,180.6485 v -62.9689 h -51.02652 v 43.42684 h -43.42683 v 51.02651 h 62.9689 c 17.31644,0 31.48445,-14.168 31.48445,-31.48445 z"
            style="fill:#388e3c;stroke-width:0.301577"
          />
          <path
            d="m -144.61665,93.409093 34.30363,26.629867 31.290091,-40.306799 -49.740271,-38.613297 c -13.67858,-10.618649 -33.55814,-8.115077 -44.17678,5.563506 l -38.6133,49.740281 40.30678,31.290079 z"
            style="fill:#388e3c;stroke-width:0.301577"
          />
          <path
            style="fill:#0288d1"
            d="m 31.455078,-241.0957 -0.884766,6.72656 220.150388,58.99023 -83.5039,386.72071 H 411.79102 L 310.93555,-241.0957 Z m 25.998047,6.84375 H 305.44922 l 97.80469,438.75 h -227.5586 l 83.08985,-384.80274 z"
          />
          <path
            d="m -58.871709,118.40568 h -50.173401 v 61.9161 c 0,17.02692 13.931136,30.95805 30.958043,30.95805 h 61.91611 v -50.17339 h -42.700752 z"
            style="fill:#388e3c;stroke-width:0.301575"
          />
          <path
            class="ist-maintenance_rope"
            style="fill:#0288d1"
            d="m 28.712891,-241.0957 0.0039,136.42434 h 5.476562 l -0.0059,-136.42434 z"
          />
        </g>
      </g>
    </g>
  </g>
</svg>
