<?xml version="1.0" encoding="UTF-8" standalone="no"?>

<svg
  viewBox="0 0 33.866666 33.866668"
  version="1.1"
  xmlns="http://www.w3.org/2000/svg"
>
  <g>
    <g transform="translate(-78.253116,-114.82947)">
      <path
        style="fill:#d32f2f;stroke-width:0.352783"
        d="m 95.186438,125.24268 c -3.602364,0 -6.520307,2.91794 -6.520307,6.5203 0,3.60237 2.917943,6.51986 6.520307,6.51986 3.602363,0 6.520302,-2.91749 6.520302,-6.51986 0,-3.60236 -2.917939,-6.5203 -6.520302,-6.5203 z m 0,1.99271 a 4.5275922,4.5275922 0 0 1 4.527592,4.52759 4.5275922,4.5275922 0 0 1 -4.527592,4.52759 4.5275922,4.5275922 0 0 1 -4.527593,-4.52759 4.5275922,4.5275922 0 0 1 4.527593,-4.52759 z"
      />
      <path
        d="m 106.02119,142.59756 h -5.19029 v 6.09856 h 7.52592 c 2.06961,0 3.76294,-1.69332 3.76294,-3.76293 v -7.52592 h -6.09857 z"
        style="fill:#d32f2f;stroke-width:0.352781"
      />
      <path
        d="m 108.35682,114.82945 h -7.52592 v 6.09861 h 5.19029 v 5.1903 h 6.09857 v -7.52591 c 0,-2.06966 -1.69333,-3.763 -3.76294,-3.763 z"
        style="fill:#d32f2f;stroke-width:0.352781"
      />
      <path
        d="m 84.351702,120.92806 h 5.19029 v -6.09861 h -7.52591 c -2.06966,0 -3.763,1.69334 -3.763,3.763 v 7.52591 h 6.09862 z"
        style="fill:#d32f2f;stroke-width:0.352781"
      />
      <path
        d="m 84.351702,137.40727 h -6.09862 v 7.52592 c 0,2.06961 1.69334,3.76293 3.763,3.76293 h 7.52591 v -6.09856 h -5.19029 z"
        style="fill:#d32f2f;stroke-width:0.352781"
      />
      <path
        style="fill:none;stroke:#d32f2f;stroke-width:2.11667;stroke-linecap:butt;stroke-linejoin:miter;stroke-miterlimit:4"
        d="m 102.8208,139.39714 -3.970927,-3.9709"
      />
      <path
        style="fill:#d32f2f;stroke:#d32f2f;stroke-width:2.11667;stroke-linecap:butt;stroke-linejoin:miter;stroke-miterlimit:4"
        d="m 91.705892,135.24336 6.961113,-6.96111"
      />
    </g>
  </g>
</svg>
