<?xml version="1.0" encoding="UTF-8" standalone="no"?>

<svg
  viewBox="0 0 33.866666 33.866668"
  version="1.1"
  xmlns="http://www.w3.org/2000/svg"
>
  <g>
    <g transform="translate(-107.79203,-168.87455)">
      <path
        style="fill:#d32f2f;stroke-width:0.352783"
        d="m 124.72538,178.28198 c -4.15806,0 -7.52615,3.36806 -7.52615,7.52613 0,4.15807 3.36809,7.52562 7.52615,7.52562 4.15807,0 7.52613,-3.36755 7.52613,-7.52562 0,-4.15807 -3.36806,-7.52613 -7.52613,-7.52613 z m 0,2.30011 a 5.2260258,5.2260258 0 0 1 5.22602,5.22602 5.2260258,5.2260258 0 0 1 -5.22602,5.22603 5.2260258,5.2260258 0 0 1 -5.22603,-5.22603 5.2260258,5.2260258 0 0 1 5.22603,-5.22602 z"
      />
      <path
        d="m 135.56013,196.64266 h -5.19029 v 6.09856 h 7.52592 c 2.06961,0 3.76294,-1.69332 3.76294,-3.76293 v -7.52592 h -6.09857 z"
        style="fill:#d32f2f;stroke-width:0.352781"
      />
      <path
        d="m 137.89576,168.87455 h -7.52592 v 6.09861 h 5.19029 v 5.1903 h 6.09857 v -7.52591 c 0,-2.06966 -1.69333,-3.763 -3.76294,-3.763 z"
        style="fill:#d32f2f;stroke-width:0.352781"
      />
      <path
        d="m 113.89065,174.97316 h 5.19029 v -6.09861 h -7.52591 c -2.06966,0 -3.763,1.69334 -3.763,3.763 v 7.52591 h 6.09862 z"
        style="fill:#d32f2f;stroke-width:0.352781"
      />
      <path
        d="m 113.89065,191.45237 h -6.09862 v 7.52592 c 0,2.06961 1.69334,3.76293 3.763,3.76293 h 7.52591 v -6.09856 h -5.19029 z"
        style="fill:#d32f2f;stroke-width:0.352781"
      />
      <path
        style="fill:#d32f2f;stroke:#d32f2f;stroke-width:2.11667;stroke-linecap:butt;stroke-linejoin:miter;stroke-miterlimit:4;"
        d="m 119.8293,190.70399 9.79218,-9.79218"
      />
    </g>
  </g>
</svg>
