<?xml version="1.0" encoding="UTF-8" standalone="no"?>

<svg
  viewBox="0 0 16.933333 16.933334"
  version="1.1"
  xmlns="http://www.w3.org/2000/svg"
>
  <g>
    <g
      transform="matrix(0.94074074,0,0,0.94074074,-2.8222223,-2.8222223)"
      style="stroke-width:0.375"
    >
      <path
        d="m 12,8 c -2.21,0 -4,1.79 -4,4 0,2.21 1.79,4 4,4 2.21,0 4,-1.79 4,-4 0,-2.21 -1.79,-4 -4,-4 z m 0,2 c 1.1,0 2,0.9 2,2 0,1.1 -0.9,2 -2,2 -1.1,0 -2,-0.9 -2,-2 0,-1.1 0.9,-2 2,-2 z"
        style="fill:#ffc107;stroke-width:0.375" />
      <path
        class="angle"
        d="M 17.758621,17.758621 H 15 V 21 h 4 c 1.1,0 2,-0.9 2,-2 v -4 h -3.241379 z"
        style="stroke-width:0.375"
      />
      <path
        class="angle"
        d="m 19,3 h -4 v 3.2413793 h 2.758621 V 9 H 21 V 5 C 21,3.9 20.1,3 19,3 Z"
        style="stroke-width:0.375"
      />
      <path
        class="angle"
        d="M 6.2413793,6.2413793 H 9 V 3 H 5 C 3.9,3 3,3.9 3,5 v 4 h 3.2413793 z"
        style="stroke-width:0.375"
      />
      <path
        class="angle"
        d="M 6.2413793,15 H 3 v 4 c 0,1.1 0.9,2 2,2 H 9 V 17.758621 H 6.2413793 Z"
        style="stroke-width:0.375"
      />
    </g>
  </g>
</svg>
