<?xml version="1.0" encoding="UTF-8" standalone="no"?>
<svg viewBox="0 0 96.745003 24" xmlns="http://www.w3.org/2000/svg">
  <g transform="matrix(1.1749905,0,0,1.1749905,-6.7561954,38.18719)">
    <g
      transform="translate(2.75,-35.5)">
      <path
        d="m 12,8 c -2.21,0 -4,1.79 -4,4 0,2.21 1.79,4 4,4 2.21,0 4,-1.79 4,-4 0,-2.21 -1.79,-4 -4,-4 z m 0,2 c 1.1,0 2,0.9 2,2 0,1.1 -0.9,2 -2,2 -1.1,0 -2,-0.9 -2,-2 0,-1.1 0.9,-2 2,-2 z"
        style="fill:#ffc107;fill-opacity:1" />
      <path
        d="M 17.758621,17.758621 H 15 V 21 h 4 c 1.1,0 2,-0.9 2,-2 v -4 h -3.241379 z"
        style="fill:#388e3c;fill-opacity:1"
      />
      <path
        d="m 19,3 h -4 v 3.2413793 h 2.758621 V 9 H 21 V 5 C 21,3.9 20.1,3 19,3 Z"
        style="fill:#388e3c;fill-opacity:1" />
      <path
        d="M 6.2413793,6.2413793 H 9 V 3 H 5 C 3.9,3 3,3.9 3,5 v 4 h 3.2413793 z"
        style="fill:#388e3c;fill-opacity:1"
      />
      <path
        d="M 6.2413793,15 H 3 v 4 c 0,1.1 0.9,2 2,2 H 9 V 17.758621 H 6.2413793 Z"
        style="fill:#388e3c;fill-opacity:1"
      />
    </g>
    <g transform="matrix(0.7748717,0,0,0.7748717,6.5214241,-5.2481786)">
      <g transform="matrix(1.0258022,0,0,1.0258022,-0.6891534,1.4755669)">
        <g>
          <path
            d="m 28.064759,-15.614988 v -11.890259 h 3.145092 v 11.890259 z"
            style="fill:#388e3c;fill-opacity:1" />
          <path
            d="m 27.815867,-31.419642 q 0,-0.72405 0.509097,-1.210521 0.520411,-0.486471 1.334967,-0.486471 0.79193,0 1.323654,0.486471 0.531725,0.475158 0.531725,1.210521 0,0.735363 -0.531725,1.221834 -0.520411,0.486472 -1.323654,0.486472 -0.803242,0 -1.323653,-0.497785 -0.520411,-0.497784 -0.520411,-1.210521 z"
            style="fill:#ffc107;fill-opacity:1" />
          <path
            d="m 45.475898,-15.614988 h -3.145092 v -6.663523 q 0,-3.054586 -2.20609,-3.054586 -1.108701,0 -1.810125,0.837183 -0.69011,0.82587 -0.69011,2.10427 v 6.776656 h -3.156405 v -11.890259 h 3.156405 v 1.911945 h 0.03394 q 1.312341,-2.194777 3.857829,-2.194777 3.959648,0 3.959648,4.898651 z"
            style="fill:#388e3c;fill-opacity:1" />
          <path
            d="m 48.123205,-19.563323 q 1.979824,1.640425 4.536625,1.640425 1.538606,0 2.296596,-0.531724 0.75799,-0.543037 0.75799,-1.41416 0,-0.75799 -0.633544,-1.391534 -0.633543,-0.633543 -3.065899,-1.674365 -2.07033,-0.927689 -3.009333,-2.081644 -0.927689,-1.165268 -0.927689,-2.726501 0,-2.251343 1.742246,-3.51843 1.742245,-1.278401 4.570565,-1.278401 2.534175,0 3.993588,0.633544 v 3.088526 q -1.617799,-1.108702 -3.903082,-1.108702 -1.34628,0 -2.183463,0.509098 -0.825869,0.509097 -0.825869,1.402847 0,0.712736 0.576977,1.301027 0.576977,0.588291 2.703874,1.527293 2.443669,1.063448 3.393985,2.24003 0.950315,1.165268 0.950315,2.79438 0,2.353162 -1.685679,3.597623 -1.674365,1.233148 -4.706325,1.233148 -2.817007,0 -4.581878,-0.939002 z"
            style="fill:#388e3c;fill-opacity:1" />
          <path
            d="m 61.631264,-15.614988 v -11.890259 h 3.145092 v 11.890259 z"
            style="fill:#388e3c;fill-opacity:1" />
          <path
            d="m 61.382372,-31.419642 q 0,-0.72405 0.509098,-1.210521 0.520411,-0.486471 1.334967,-0.486471 0.79193,0 1.323654,0.486471 0.531724,0.475158 0.531724,1.210521 0,0.735363 -0.531724,1.221834 -0.520411,0.486472 -1.323654,0.486472 -0.803243,0 -1.323654,-0.497785 -0.520411,-0.497784 -0.520411,-1.210521 z"
            style="fill:#ffc107;fill-opacity:1" />
          <path
            d="m 79.246042,-16.848136 q 0,3.303478 -1.821439,5.057037 -1.821438,1.764871 -5.283302,1.764871 -2.353162,0 -3.823889,-0.735363 v -2.737814 q 1.866692,1.074762 3.744696,1.074762 1.923258,0 2.975393,-1.029509 1.063449,-1.018195 1.063449,-2.907513 V -17.4138 H 76.0557 q -1.289714,2.092957 -3.812575,2.092957 -2.217403,0 -3.574997,-1.595173 -1.357594,-1.595172 -1.357594,-4.299046 0,-2.99802 1.48204,-4.785518 1.493353,-1.787499 3.925708,-1.787499 2.20609,0 3.337418,1.742246 h 0.04525 v -1.459414 h 3.145092 z m -3.111153,-5.554821 q 0,-1.210521 -0.757989,-2.07033 -0.75799,-0.85981 -1.923258,-0.85981 -1.357594,0 -2.160837,1.052135 -0.79193,1.052136 -0.79193,2.941453 0,1.629113 0.75799,2.590742 0.75799,0.961629 2.013764,0.961629 1.278401,0 2.070331,-0.961629 0.791929,-0.961629 0.791929,-2.477609 z"
            style="fill:#388e3c;fill-opacity:1" />
          <path
            d="m 93.48946,-15.614988 h -3.145092 v -6.776656 c 0,-1.960969 -0.716508,-2.941453 -2.149523,-2.941453 -0.739135,0 -1.34251,0.279061 -1.810125,0.837183 -0.460073,0.55058 -0.69011,1.252003 -0.69011,2.10427 v 6.776656 h -3.156406 v -17.480953 h 3.156406 v 7.423446 h 0.03394 c 0.905063,-1.410389 2.149524,-2.115584 3.733383,-2.115584 2.685019,0 4.027528,1.62157 4.027528,4.864711 z"
            style="fill:#388e3c;fill-opacity:1" />
          <path
            d="m 103.28676,-15.739434 q -0.80324,0.407278 -2.24003,0.407278 -3.654188,0 -3.654188,-3.869142 v -5.905533 h -1.968511 v -2.398416 h 1.968511 v -2.658621 l 3.145088,-0.916375 v 3.574996 h 2.74913 v 2.398416 h -2.74913 v 5.351182 q 0,1.968511 1.54992,1.968511 0.64486,0 1.19921,-0.362025 z"
            style="fill:#388e3c;fill-opacity:1" />
        </g>
      </g>
    </g>
  </g>
</svg>
