<?xml version="1.0" encoding="UTF-8" standalone="no"?>

<svg
  viewBox="0 0 33.866666 33.866668"
  version="1.1"
  xmlns="http://www.w3.org/2000/svg"
>
  <g>
    <path
      d="m 27.7681,27.76811 h -5.19029 v 6.09856 h 7.52592 c 2.06961,0 3.76294,-1.69332 3.76294,-3.76293 V 22.57782 H 27.7681 Z"
      style="fill:#d32f2f;stroke-width:0.352781" />
    <path
      d="m 30.10373,0 h -7.52592 v 6.09861 h 5.19029 v 5.1903 h 6.09857 V 3.763 C 33.86667,1.69334 32.17334,0 30.10373,0 Z"
      style="fill:#d32f2f;stroke-width:0.352781" />
    <path
      d="m 6.09862,6.09861 h 5.19029 V 0 H 3.763 C 1.69334,0 0,1.69334 0,3.763 v 7.52591 h 6.09862 z"
      style="fill:#d32f2f;stroke-width:0.352781" />
    <path
      d="M 6.09862,22.57782 H 0 v 7.52592 c 0,2.06961 1.69334,3.76293 3.763,3.76293 h 7.52591 V 27.76811 H 6.09862 Z"
      style="fill:#d32f2f;stroke-width:0.352781" />
    <rect
      style="fill:none;stroke:#d32f2f;stroke-width:2.11667;stroke-linecap:round;stroke-linejoin:round"
      width="12.802377"
      height="12.802377"
      x="10.532172"
      y="10.532162" />
    <g transform="translate(0.67403593,0.28516301)">
      <path
        style="fill:#d32f2f;stroke:#d32f2f;stroke-width:0.79375;stroke-linecap:butt;stroke-linejoin:miter"
        d="m 12.425221,14.975642 2.550431,-2.550431"
      />
      <path
        style="fill:#d32f2f;stroke:#d32f2f;stroke-width:0.79375;stroke-linecap:butt;stroke-linejoin:miter"
        d="M 14.975652,14.975642 12.425221,12.425211"
      />
    </g>
    <g>
      <rect
        style="fill:none;stroke:#d32f2f;stroke-width:0.79375;stroke-linecap:round;stroke-linejoin:round"
        width="7.4357243"
        height="1.2931694"
        x="13.215499"
        y="16.746544"
      />
      <rect
        style="fill:none;stroke:#d32f2f;stroke-width:0.79375;stroke-linecap:round;stroke-linejoin:round"
        width="7.4357243"
        height="1.2931694"
        x="13.215499"
        y="19.332882"
      />
    </g>
  </g>
</svg>
